<svg xmlns="http://www.w3.org/2000/svg" viewBox="0 0 40.5 40.5">
  <path class="svg--fill" d="M20.25,9.72A10.42,10.42,0,1,0,30.67,20.14,10.43,10.43,0,0,0,20.25,9.72Zm0,17.11a6.69,6.69,0,1,1,6.69-6.69A6.7,6.7,0,0,1,20.25,26.83Z"/>
  <circle class="svg--fill" cx="31.06" cy="9.46" r="2.37"/>
  <path class="svg--fill" d="M37.23,3.31A11.75,11.75,0,0,0,28.66,0H11.84C4.76,0,0,4.76,0,11.84V28.57a11.81,11.81,0,0,0,3.41,8.72,11.93,11.93,0,0,0,8.52,3.21H28.57a12,12,0,0,0,8.6-3.21,11.72,11.72,0,0,0,3.34-8.64V11.84A11.79,11.79,0,0,0,37.23,3.31Zm-.46,25.34a8.1,8.1,0,0,1-2.21,6,8.35,8.35,0,0,1-6,2.14H11.93A8.29,8.29,0,0,1,6,34.61a8.18,8.18,0,0,1-2.28-6V11.84a8.16,8.16,0,0,1,2.18-6,8.18,8.18,0,0,1,5.93-2.16H28.66a8.12,8.12,0,0,1,5.93,2.21,8.15,8.15,0,0,1,2.18,5.9Z"/>
</svg>
