<svg width="88" height="69" viewBox="0 0 88 69" fill="none" xmlns="http://www.w3.org/2000/svg">
<path d="M20 69C30.8571 69 39.619 60.0907 39.619 49.0962C39.619 40.1868 33.1429 33.3626 24.7619 31.2775C27.4286 16.8709 37.9048 7.01374 37.9048 7.01374L28.9524 0C15.0476 11.5632 0 28.4341 0 49.0962C0 60.0907 8.95238 69 20 69ZM68.1905 69C79.0476 69 88 60.0907 88 49.0962C88 40.1868 81.5238 33.3626 72.9524 31.2775C75.8095 16.8709 86.2857 7.01374 86.2857 7.01374L77.3333 0C63.2381 11.5632 48.5714 28.4341 48.5714 49.0962C48.5714 60.0907 57.1429 69 68.1905 69Z" fill="#A0D96B"/>
</svg>
